# xmcd
#
# Track frame offsets:
#	150
#	14815
#	35377
#	49295
#	69787
#	82515
#	99372
#	116995
#	136750
#	154022
#	163522
#	186082
#
# Disc length: 2677 seconds
#
# Revision: 1
# Processed by: cddbd v1.5.1PL0 Copyright (c) Steve Scherf et al.
# Submitted via: audiograbber 1.83.01
#
DISCID=8f0a730c
DTITLE=Swamp-Wise - Songs That Ain't Too Hard
DYEAR=2000
DGENRE=Bluegrass
TTITLE0=Cold Iron Chains
TTITLE1=Corn Dogs
TTITLE2=Streets of Gold
TTITLE3=Sunday Afternoon
TTITLE4=Shortcut Sam
TTITLE5=The General
TTITLE6=Caroline
TTITLE7=The Song Lingers On
TTITLE8=Nine Years
TTITLE9=Ol' Cuss
TTITLE10=Gates of Heaven
TTITLE11=Boat Song
EXTD=
EXTT0=
EXTT1=
EXTT2=
EXTT3=
EXTT4=
EXTT5=
EXTT6=
EXTT7=
EXTT8=
EXTT9=
EXTT10=
EXTT11=
PLAYORDER=
